<?xml version="1.0" encoding="UTF-8"?>
<svg width="1280" height="640" version="1.1" viewBox="0 0 338.67 169.33" xmlns="http://www.w3.org/2000/svg"><rect y="-4.0811e-15" width="338.67" height="169.33" fill="#333" stroke-width="4"/><path d="m202.41 51.329a37.042 37.042 0 0 1-37.042 37.042 37.042 37.042 0 0 1-37.042-37.042 37.042 37.042 0 0 1 37.042-37.042 37.042 37.042 0 0 1 37.042 37.042z" fill="#eee" stroke-width="4"/><path d="m190.24 58.473h-29.369v-39.158h7.4083v32.279h21.96z" fill="#333" stroke-width=".26458"/><path d="m105.85 22.236q-11.571 0-18.212 7.7477-6.6409 7.7477-6.6409 21.231 0 13.382 6.1378 21.231 6.2384 7.7477 18.615 7.7477 4.7291 0 8.9551-0.80495 4.226-0.80495 8.2508-2.0124v7.8483q-4.0248 1.5093-8.3514 2.2136-4.226 0.70434-10.163 0.70434-10.968 0-18.313-4.5279-7.3452-4.5279-11.068-12.879-3.6223-8.3514-3.6223-19.621 0-10.867 3.9242-19.118 4.0248-8.3514 11.772-12.98 7.7477-4.7291 18.816-4.7291 11.37 0 19.822 4.226l-3.6223 7.6471q-3.3204-1.5093-7.4458-2.7167-4.0248-1.2074-8.8545-1.2074z" fill="#eee" stroke-width="4"/><path d="m267.3 88.142h-10.861l-39.513-61.339h-0.41376q0.20687 3.6203 0.51719 8.9991t0.31032 11.068v41.272h-8.5854v-73.855h10.758l39.41 61.132h0.41375q-0.10345-1.655-0.31031-4.965-0.10344-3.31-0.31032-7.2407-0.10344-3.9306-0.10344-7.2406v-41.685h8.6888z" fill="#eee" stroke-width="4"/><g transform="matrix(1.1736 0 0 1.1736 -29.395 -30.515)" fill="#eee" stroke-width="3.4083"><path d="m107.78 112.47q-7.3513 0-11.57 4.9222-4.219 4.9222-4.219 13.488 0 8.502 3.8994 13.488 3.9633 4.9222 11.826 4.9222 3.0045 0 5.6893-0.51139 2.6848-0.5114 5.2418-1.2785v4.9861q-2.557 0.95887-5.3057 1.4063-2.6848 0.44747-6.4564 0.44747-6.9678 0-11.634-2.8766-4.6665-2.8766-7.0317-8.1823-2.3013-5.3057-2.3013-12.465 0-6.9038 2.4931-12.146 2.557-5.3057 7.4792-8.2463 4.9222-3.0044 11.954-3.0044 7.2235 0 12.593 2.6848l-2.3013 4.8583q-2.1095-0.95887-4.7304-1.726-2.557-0.7671-5.6254-0.7671z"/><path d="m142.11 108.06q8.502 0 12.529 3.2602 4.0912 3.1962 4.0912 9.7165 0 3.6437-1.3424 6.0728-1.3424 2.4291-3.4519 3.8994-2.0456 1.4063-4.3469 2.2374l12.529 20.456h-6.7121l-11.059-18.858h-9.0773v18.858h-5.7532v-45.642zm-0.31962 4.9861h-6.5203v16.94h6.8399q5.5614 0 8.1184-2.1734 2.557-2.2374 2.557-6.5203 0-4.4747-2.6848-6.3285-2.6848-1.9177-8.3102-1.9177z"/><path d="m209.32 130.62q0 7.0956-2.4291 12.401-2.3652 5.2418-7.0317 8.1823t-11.57 2.9405q-7.0956 0-11.826-2.9405-4.6665-2.9405-6.9678-8.2463t-2.3013-12.401q0-7.0317 2.3013-12.274 2.3013-5.2418 6.9678-8.1823 4.7304-2.9405 11.89-2.9405 6.8399 0 11.506 2.9405 4.6665 2.8766 7.0317 8.1823 2.4291 5.2418 2.4291 12.337zm-36.053 0q0 8.6298 3.6437 13.616 3.6437 4.9222 11.379 4.9222 7.7988 0 11.379-4.9222 3.5798-4.9861 3.5798-13.616 0-8.6298-3.5798-13.488-3.5798-4.9222-11.315-4.9222t-11.442 4.9222q-3.6437 4.8583-3.6437 13.488z"/><path d="m252.75 153.7h-6.7121l-24.419-37.907h-0.2557q0.12785 2.2374 0.31963 5.5614 0.19177 3.3241 0.19177 6.8399v25.506h-5.3057v-45.642h6.6481l24.355 37.779h0.2557q-0.0639-1.0228-0.19178-3.0684-0.0639-2.0456-0.19177-4.4747-0.0639-2.4291-0.0639-4.4747v-25.762h5.3697z"/></g></svg>
