<?xml version="1.0" encoding="UTF-8"?>
<svg width="1280" height="640" version="1.1" viewBox="0 0 338.67 169.33" xmlns="http://www.w3.org/2000/svg"><rect y="-4.0811e-15" width="338.67" height="169.33" fill="#333" stroke-width="4"/><path d="m199.76 55.561a34.396 34.396 0 0 1-34.396 34.396 34.396 34.396 0 0 1-34.396-34.396 34.396 34.396 0 0 1 34.396-34.396 34.396 34.396 0 0 1 34.396 34.396z" fill="#eee" stroke-width="4"/><path d="m188.39 62.175h-27.252v-36.248h6.8792v29.898h20.373z" fill="#333" stroke-width=".26458"/><g fill="#eee"><path d="m110.11 28.568q-10.778 0-16.964 7.2166-6.1857 7.2166-6.1857 19.776 0 12.465 5.7171 19.776 5.8108 7.2166 17.339 7.2166 4.4049 0 8.3412-0.74977 3.9363-0.74977 7.6852-1.8745v7.3103q-3.7489 1.4058-7.7789 2.0619-3.9363 0.65606-9.4663 0.65606-10.216 0-17.058-4.2175-6.8417-4.2175-10.309-11.996-3.374-7.7789-3.374-18.276 0-10.122 3.6552-17.807 3.7489-7.7789 10.965-12.09 7.2166-4.4049 17.526-4.4049 10.591 0 18.463 3.9363l-3.374 7.1229q-3.0928-1.4058-6.9354-2.5305-3.7489-1.1246-8.2475-1.1246z" stroke-width="4"/><path d="m260.38 89.957h-10.116l-36.804-57.134h-0.3854q0.19269 3.3721 0.48174 8.3822 0.28905 5.0101 0.28905 10.309v38.443h-7.9969v-68.792h10.021l36.708 56.941h0.38538q-0.0964-1.5416-0.28903-4.6247-0.0964-3.0831-0.28905-6.7444-0.0964-3.6612-0.0964-6.7443v-38.828h8.0932z" stroke-width="4"/><g stroke-width="4"><path d="m101.94 102.22q-8.0311 0-12.64 5.3774-4.6092 5.3774-4.6092 14.735 0 9.2882 4.26 14.735 4.3298 5.3774 12.92 5.3774 3.2824 0 6.2154-0.55869t5.7266-1.3967v5.4472q-2.7935 1.0476-5.7964 1.5364-2.9331 0.48886-7.0535 0.48886-7.6122 0-12.71-3.1426-5.0981-3.1426-7.682-8.939-2.5141-5.7964-2.5141-13.618 0-7.5422 2.7237-13.269 2.7935-5.7964 8.1709-9.0089 5.3774-3.2822 13.059-3.2822 7.8915 0 13.758 2.9331l-2.5141 5.3076q-2.3046-1.0476-5.1679-1.8856-2.7935-0.83804-6.1456-0.83804z"/><path d="m139.39 97.402q9.2882 0 13.688 3.5617 4.4696 3.4918 4.4696 10.615 0 3.9807-1.4666 6.6344-1.4665 2.6538-3.7711 4.26-2.2348 1.5364-4.7489 2.4443l13.688 22.348h-7.3328l-12.082-20.602h-9.9168v20.602h-6.2852v-49.863zm-0.34918 5.4472h-7.1233v18.507h7.4724q6.0757 0 8.8692-2.3744 2.7935-2.4443 2.7935-7.1233 0-4.8885-2.9331-6.9138-2.9331-2.095-9.0787-2.095z"/><path d="m212.89 122.3q0 7.7518-2.6537 13.548-2.5839 5.7266-7.682 8.939-5.098 3.2124-12.64 3.2124-7.7518 0-12.92-3.2124-5.098-3.2124-7.6122-9.0089-2.5141-5.7965-2.5141-13.548 0-7.682 2.5141-13.409 2.5141-5.7266 7.6122-8.939 5.1678-3.2124 12.99-3.2124 7.4724 0 12.57 3.2124 5.098 3.1426 7.682 8.939 2.6537 5.7266 2.6537 13.478zm-39.387 0q0 9.4279 3.9807 14.875 3.9807 5.3774 12.431 5.3774 8.52 0 12.431-5.3774 3.9109-5.4472 3.9109-14.875 0-9.4279-3.9109-14.735-3.9109-5.3774-12.361-5.3774-8.4506 0-12.5 5.3774-3.9807 5.3076-3.9807 14.735z"/><path d="m260.32 147.27h-7.3328l-26.677-41.413h-0.27934q0.13967 2.4443 0.34919 6.0757 0.20951 3.6315 0.20951 7.4724v27.865h-5.7964v-49.863h7.2629l26.607 41.273h0.27935q-0.0698-1.1174-0.20952-3.3522-0.0698-2.2348-0.20949-4.8885-0.0698-2.6537-0.0698-4.8885v-28.144h5.8663z"/></g></g></svg>
